<svg width="60" height="60" viewBox="0 0 60 60" fill="none" xmlns="http://www.w3.org/2000/svg">
<rect width="60" height="60" rx="18" fill="#2E2E2E"/>
<path d="M30 19.5834C24.2448 19.5834 19.5833 24.2448 19.5833 30C19.5821 32.1868 20.2696 34.3184 21.5481 36.0924C22.8267 37.8664 24.6314 39.1928 26.7062 39.8834C27.2271 39.974 27.4219 39.6615 27.4219 39.3875C27.4219 39.1407 27.4083 38.3209 27.4083 37.448C24.7916 37.9302 24.1146 36.8105 23.9062 36.224C23.7885 35.924 23.2812 35 22.8385 34.7521C22.4739 34.5573 21.9531 34.075 22.825 34.0625C23.6458 34.049 24.2312 34.8177 24.4271 35.1302C25.3646 36.7052 26.8625 36.2625 27.4604 35.9896C27.5521 35.3125 27.825 34.8573 28.125 34.5969C25.8073 34.3365 23.3854 33.4375 23.3854 29.4532C23.3854 28.3198 23.7885 27.3834 24.4531 26.6532C24.3489 26.3927 23.9844 25.325 24.5573 23.8927C24.5573 23.8927 25.4291 23.6198 27.4219 24.9615C28.2698 24.7261 29.146 24.6077 30.026 24.6094C30.9114 24.6094 31.7969 24.7261 32.6302 24.9605C34.6219 23.6063 35.4948 23.8938 35.4948 23.8938C36.0677 25.3261 35.7031 26.3938 35.5989 26.6542C36.2625 27.3834 36.6666 28.3073 36.6666 29.4532C36.6666 33.4511 34.2323 34.3365 31.9146 34.5969C32.2916 34.9219 32.6177 35.5469 32.6177 36.524C32.6177 37.9167 32.6041 39.0365 32.6041 39.3886C32.6041 39.6615 32.8 39.9865 33.3208 39.8823C35.3886 39.1842 37.1853 37.8552 38.4582 36.0825C39.7311 34.3097 40.4161 32.1825 40.4166 30C40.4166 24.2448 35.7552 19.5834 30 19.5834Z" fill="#E7E7E7"/>
</svg>
