<svg width="60" height="60" viewBox="0 0 60 60" fill="none" xmlns="http://www.w3.org/2000/svg">
<rect width="60" height="60" rx="18" fill="#2E2E2E"/>
<path d="M37.6852 20.8334C38.2991 20.8334 38.8879 21.0773 39.322 21.5114C39.7561 21.9455 40 22.5343 40 23.1482V39.3519C40 39.9658 39.7561 40.5546 39.322 40.9887C38.8879 41.4228 38.2991 41.6667 37.6852 41.6667H21.4815C20.8676 41.6667 20.2788 41.4228 19.8447 40.9887C19.4106 40.5546 19.1667 39.9658 19.1667 39.3519V23.1482C19.1667 22.5343 19.4106 21.9455 19.8447 21.5114C20.2788 21.0773 20.8676 20.8334 21.4815 20.8334H37.6852ZM37.1065 38.7732V32.6389C37.1065 31.6382 36.709 30.6785 36.0014 29.9709C35.2938 29.2633 34.3341 28.8658 33.3334 28.8658C32.3496 28.8658 31.2037 29.4676 30.6482 30.3704V29.0857H27.419V38.7732H30.6482V33.0672C30.6482 32.176 31.3658 31.4468 32.257 31.4468C32.6867 31.4468 33.0989 31.6175 33.4027 31.9214C33.7066 32.2253 33.8773 32.6374 33.8773 33.0672V38.7732H37.1065ZM23.6574 27.2686C24.1731 27.2686 24.6677 27.0637 25.0324 26.699C25.397 26.3344 25.6019 25.8398 25.6019 25.3241C25.6019 24.2477 24.7338 23.3681 23.6574 23.3681C23.1387 23.3681 22.6411 23.5742 22.2743 23.941C21.9075 24.3078 21.7014 24.8053 21.7014 25.3241C21.7014 26.4005 22.581 27.2686 23.6574 27.2686ZM25.2662 38.7732V29.0857H22.0602V38.7732H25.2662Z" fill="#E7E7E7"/>
</svg>
